<svg width="60" height="60" viewBox="0 0 60 60" fill="none" xmlns="http://www.w3.org/2000/svg">
<path d="M41.4035 18.546H15.5088V37.9267H41.4035V18.546Z" fill="#C8D4FF"/>
<path d="M44.07 41.2596H29.7433C29.3753 41.2596 29.0766 40.9616 29.0766 40.5929C29.0766 40.2242 29.3753 39.9262 29.7433 39.9262H43.4033V16.5462H13.5086V18.8909C13.5086 19.2589 13.21 19.5576 12.842 19.5576C12.474 19.5576 12.1753 19.2589 12.1753 18.8909V15.8796C12.1753 15.5116 12.474 15.2129 12.842 15.2129H44.07C44.4386 15.2129 44.7366 15.5116 44.7366 15.8796V40.5929C44.7366 40.9609 44.4386 41.2596 44.07 41.2596Z" fill="black"/>
<path d="M18.4553 41.2596H12.842C12.474 41.2596 12.1753 40.9616 12.1753 40.5929V37.2349C12.1753 36.8662 12.474 36.5682 12.842 36.5682C13.21 36.5682 13.5086 36.8662 13.5086 37.2349V39.9262H18.4553C18.8233 39.9262 19.122 40.2242 19.122 40.5929C19.122 40.9616 18.8233 41.2596 18.4553 41.2596Z" fill="black"/>
<path d="M59.3333 41.26C58.9667 41.26 58.6693 40.9647 58.6667 40.598L58.6033 31.1733L51.7687 23.9993H44.7367V39.9267H48.5267C48.8953 39.9267 49.1933 40.2247 49.1933 40.5933C49.1933 40.962 48.8953 41.26 48.5267 41.26H44.07C43.7013 41.26 43.4033 40.962 43.4033 40.5933V23.3327C43.4033 22.9647 43.7013 22.666 44.07 22.666H52.0547C52.2367 22.666 52.4113 22.7407 52.5373 22.8727L59.7507 30.4447C59.868 30.568 59.9333 30.7307 59.9347 30.9L60 40.5887C60.0027 40.9573 59.706 41.2573 59.338 41.26C59.3367 41.26 59.3347 41.26 59.3333 41.26Z" fill="black"/>
<path d="M53.9279 31.5707H48.2846C47.9159 31.5707 47.6179 31.2727 47.6179 30.904V23.3327C47.6179 22.9647 47.9159 22.666 48.2846 22.666C48.6533 22.666 48.9513 22.9647 48.9513 23.3327V30.238H53.9279C54.2966 30.238 54.5946 30.5367 54.5946 30.9047C54.5946 31.2727 54.2959 31.5707 53.9279 31.5707Z" fill="black"/>
<path d="M21.9832 44.7864C19.6706 44.7864 17.7886 42.9051 17.7886 40.5924C17.7886 38.2798 19.6699 36.3984 21.9832 36.3984C24.2959 36.3984 26.1772 38.2798 26.1772 40.5924C26.1772 42.9051 24.2952 44.7864 21.9832 44.7864ZM21.9832 37.7318C20.4059 37.7318 19.1219 39.0151 19.1219 40.5924C19.1219 42.1698 20.4052 43.4531 21.9832 43.4531C23.5612 43.4531 24.8439 42.1698 24.8439 40.5924C24.8439 39.0151 23.5606 37.7318 21.9832 37.7318Z" fill="black"/>
<path d="M52.0545 44.7864C49.7412 44.7864 47.8599 42.9051 47.8599 40.5924C47.8599 38.2798 49.7412 36.3984 52.0545 36.3984C54.3672 36.3984 56.2485 38.2798 56.2485 40.5924C56.2485 42.9051 54.3672 44.7864 52.0545 44.7864ZM52.0545 37.7318C50.4772 37.7318 49.1932 39.0151 49.1932 40.5924C49.1932 42.1698 50.4772 43.4531 52.0545 43.4531C53.6319 43.4531 54.9152 42.1698 54.9152 40.5924C54.9152 39.0151 53.6319 37.7318 52.0545 37.7318Z" fill="black"/>
<path d="M28.456 28.9027H0.666667C0.298667 28.9027 0 28.604 0 28.236C0 27.868 0.298667 27.5693 0.666667 27.5693H28.456C28.824 27.5693 29.1227 27.868 29.1227 28.236C29.1227 28.604 28.824 28.9027 28.456 28.9027Z" fill="black"/>
<path d="M28.4561 23.2582H7.72209C7.35409 23.2582 7.05542 22.9596 7.05542 22.5916C7.05542 22.2236 7.35409 21.9249 7.72209 21.9249H28.4568C28.8248 21.9249 29.1234 22.2236 29.1234 22.5916C29.1234 22.9596 28.8241 23.2582 28.4561 23.2582Z" fill="black"/>
<path d="M28.4561 34.5462H7.72209C7.35409 34.5462 7.05542 34.2482 7.05542 33.8796C7.05542 33.5109 7.35409 33.2129 7.72209 33.2129H28.4568C28.8248 33.2129 29.1234 33.5109 29.1234 33.8796C29.1234 34.2482 28.8241 34.5462 28.4561 34.5462Z" fill="black"/>
</svg>
