<svg width="60" height="47" viewBox="0 0 60 47" fill="none" xmlns="http://www.w3.org/2000/svg">
<path d="M11.4277 17.6384H4.30567C3.76834 17.6384 3.33301 17.203 3.33301 16.6664V5.24702C3.33301 4.70969 3.76834 4.27435 4.30567 4.27435H15.725C16.2623 4.27435 16.6977 4.70969 16.6977 5.24702V9.46435V16.6657C16.6977 17.203 16.2623 17.6384 15.725 17.6384H13.0363H11.4277Z" fill="#C8D4FF"/>
<path d="M47.1425 41.4334C46.3618 41.4334 45.6298 41.0161 45.2325 40.3434L43.5305 37.4654C40.0338 31.5541 36.7305 25.9701 35.5865 23.6754C34.7218 21.9014 34.2852 20.0047 34.2852 18.0341C34.2852 10.9447 40.0525 5.17672 47.1425 5.17672C54.2325 5.17672 59.9998 10.9447 59.9998 18.0341C59.9998 20.0047 59.5652 21.8967 58.7078 23.6581L58.6592 23.7507C57.5145 26.0381 54.2305 31.5894 50.7545 37.4667L49.0538 40.3434C48.6545 41.0161 47.9232 41.4334 47.1425 41.4334ZM47.1425 6.51005C40.7885 6.51005 35.6185 11.6794 35.6185 18.0341C35.6185 19.8007 36.0105 21.5007 36.7832 23.0867C37.9025 25.3327 41.1938 30.8967 44.6785 36.7874L46.3805 39.6654C46.5385 39.9334 46.8312 40.1001 47.1432 40.1001C47.4552 40.1001 47.7472 39.9334 47.9065 39.6654L49.6065 36.7887C53.0712 30.9321 56.3432 25.4001 57.4818 23.1281C58.2772 21.4967 58.6665 19.8007 58.6665 18.0341C58.6665 11.6794 53.4965 6.51005 47.1425 6.51005Z" fill="black"/>
<path d="M47.1427 10.0351C42.548 10.0351 38.8093 13.7738 38.8093 18.3684C38.8093 19.6464 39.0913 20.8731 39.6513 22.0218C40.422 23.5684 42.6773 27.3818 45.066 31.4191L46.2293 33.3864C46.42 33.7098 46.7673 33.9078 47.1427 33.9078C47.518 33.9078 47.8653 33.7091 48.056 33.3864L49.218 31.4198C51.59 27.4098 53.8313 23.6211 54.6167 22.0538C54.624 22.0404 54.6313 22.0264 54.638 22.0124C55.1933 20.8711 55.4753 19.6444 55.4753 18.3678C55.476 13.7731 51.738 10.0351 47.1427 10.0351Z" fill="#C8D4FF"/>
<path d="M47.1428 24.9347C45.5388 24.9347 43.9795 24.368 42.7515 23.34C42.4695 23.104 42.4322 22.6833 42.6688 22.4007C42.9062 22.1187 43.3255 22.0813 43.6082 22.3173C44.5955 23.1447 45.8508 23.6007 47.1428 23.6007C50.1815 23.6007 52.6535 21.1287 52.6535 18.09C52.6535 15.0513 50.1815 12.5793 47.1428 12.5793C44.1042 12.5793 41.6322 15.0513 41.6322 18.09C41.6322 18.458 41.3342 18.7567 40.9655 18.7567C40.5968 18.7567 40.2988 18.458 40.2988 18.09C40.2988 14.316 43.3688 11.246 47.1428 11.246C50.9168 11.246 53.9868 14.316 53.9868 18.09C53.9868 21.864 50.9162 24.9347 47.1428 24.9347Z" fill="black"/>
<path d="M47.1425 46.328H18.4725C15.3152 46.328 12.7465 43.7587 12.7465 40.6014C12.7465 37.444 15.3152 34.8747 18.4725 34.8747H25.1132C27.7279 34.8747 29.8545 32.748 29.8545 30.1334C29.8545 27.5187 27.7279 25.392 25.1132 25.392H10.3879C10.0199 25.392 9.72119 25.094 9.72119 24.7254C9.72119 24.3567 10.0199 24.0587 10.3879 24.0587H25.1139C28.4632 24.0587 31.1885 26.784 31.1885 30.1334C31.1885 33.4827 28.4632 36.208 25.1139 36.208H18.4732C16.0512 36.208 14.0805 38.1787 14.0805 40.6014C14.0805 43.024 16.0512 44.9947 18.4732 44.9947H47.1425C47.5112 44.9947 47.8092 45.2927 47.8092 45.6614C47.8092 46.03 47.5112 46.328 47.1425 46.328Z" fill="black"/>
<path d="M19.364 20.972H0.666667C0.298667 20.972 0 20.6733 0 20.3053V1.60801C0 1.24001 0.298667 0.941345 0.666667 0.941345H19.364C19.732 0.941345 20.0307 1.24001 20.0307 1.60801V20.3053C20.0307 20.674 19.7327 20.972 19.364 20.972ZM1.33333 19.6387H18.6973V2.27468H1.33333V19.6387Z" fill="black"/>
<path d="M12.6106 9.48802C12.47 9.48802 12.3306 9.44401 12.2133 9.35668L10.016 7.72535L7.81864 9.35668C7.61664 9.50801 7.34664 9.53068 7.12197 9.41735C6.89731 9.30401 6.75464 9.07335 6.75464 8.82135V1.60801C6.75464 1.24001 7.05331 0.941345 7.42131 0.941345C7.78931 0.941345 8.08797 1.24001 8.08797 1.60801V7.49601L9.61864 6.35935C9.85464 6.18401 10.1773 6.18401 10.4133 6.35935L11.944 7.49601V1.60801C11.944 1.24001 12.2426 0.941345 12.6106 0.941345C12.9786 0.941345 13.2773 1.24001 13.2773 1.60801V8.82135C13.2773 9.07335 13.1353 9.30401 12.91 9.41735C12.8153 9.46468 12.7126 9.48802 12.6106 9.48802Z" fill="black"/>
<path d="M7.62595 14.3927H4.09928C3.73128 14.3927 3.43262 14.094 3.43262 13.726C3.43262 13.358 3.73128 13.0593 4.09928 13.0593H7.62595C7.99395 13.0593 8.29262 13.358 8.29262 13.726C8.29262 14.094 7.99395 14.3927 7.62595 14.3927Z" fill="black"/>
<path d="M7.62595 17.6682H4.09928C3.73128 17.6682 3.43262 17.3696 3.43262 17.0016C3.43262 16.6336 3.73128 16.3349 4.09928 16.3349H7.62595C7.99395 16.3349 8.29262 16.6336 8.29262 17.0016C8.29262 17.3696 7.99395 17.6682 7.62595 17.6682Z" fill="black"/>
</svg>
