<svg width="52" height="54" viewBox="0 0 52 54" fill="none" xmlns="http://www.w3.org/2000/svg">
<path d="M44.7755 37.0151H7.22452C5.46808 37.0151 4.04443 35.2603 4.04443 33.0952V8.90535C4.04443 6.74027 5.46808 4.98541 7.22452 4.98541H44.7749C46.5313 4.98541 47.955 6.74027 47.955 8.90535V33.0945C47.9555 35.2603 46.5319 37.0151 44.7755 37.0151Z" fill="#C8D4FF"/>
<path d="M14.6536 42.0005H3.17431C1.42422 42.0005 0 40.2449 0 38.0877V3.91282C0 1.75557 1.42422 0 3.17431 0H48.8257C50.5758 0 52 1.75557 52 3.91282V6.66333C52 7.05646 51.7417 7.37553 51.4222 7.37553C51.1027 7.37553 50.8444 7.05646 50.8444 6.66333V3.91282C50.8444 2.54041 49.9391 1.4244 48.8257 1.4244H3.17431C2.06093 1.4244 1.15556 2.54041 1.15556 3.91282V38.087C1.15556 39.4594 2.06093 40.5754 3.17431 40.5754H14.6536C14.9725 40.5754 15.2314 40.8937 15.2314 41.2876C15.2314 41.6814 14.9725 42.0005 14.6536 42.0005Z" fill="black"/>
<path d="M26.4727 42.0004H21.4408C21.1219 42.0004 20.863 41.6821 20.863 41.2882C20.863 40.8944 21.1219 40.576 21.4408 40.576H26.4727C26.7922 40.576 27.0505 40.8944 27.0505 41.2882C27.0505 41.6821 26.7922 42.0004 26.4727 42.0004Z" fill="black"/>
<path d="M48.8258 42.0008H31.5046C31.185 42.0008 30.9268 41.6824 30.9268 41.2886C30.9268 40.8947 31.185 40.5764 31.5046 40.5764H48.8258C49.9391 40.5764 50.8445 39.4604 50.8445 38.088V35.0953H5.93789C5.61895 35.0953 5.36011 34.7769 5.36011 34.3831C5.36011 33.9893 5.61895 33.6709 5.93789 33.6709H51.4223C51.7418 33.6709 52.0001 33.9893 52.0001 34.3831V38.088C52.0001 40.2452 50.5758 42.0008 48.8258 42.0008Z" fill="black"/>
<path d="M37.8792 53.8963H15.0668C14.7479 53.8963 14.489 53.578 14.489 53.1841C14.489 50.3382 16.3674 48.0228 18.6767 48.0228H19.0887L20.8908 41.071C20.9879 40.6971 21.3149 40.4878 21.6171 40.6103C21.921 40.7299 22.0885 41.1302 21.9915 41.5055L20.0611 48.9522C19.9848 49.2471 19.7618 49.4472 19.5105 49.4472H18.6762C17.2017 49.4472 15.9699 50.7505 15.6995 52.4719H37.2454C36.975 50.7505 35.7426 49.4472 34.2687 49.4472H33.4349C33.1836 49.4472 32.9611 49.2471 32.8849 48.9522L30.9545 41.5055C30.8569 41.1309 31.025 40.7299 31.3283 40.6103C31.634 40.4856 31.9575 40.6971 32.0546 41.071L33.8567 48.0228H34.2687C36.578 48.0228 38.4564 50.3382 38.4564 53.1841C38.457 53.578 38.1981 53.8963 37.8792 53.8963Z" fill="black"/>
<path d="M27.059 38.0955H25.8861C25.5672 38.0955 25.3083 37.7771 25.3083 37.3833C25.3083 36.9894 25.5672 36.6711 25.8861 36.6711H27.059C27.3785 36.6711 27.6368 36.9894 27.6368 37.3833C27.6368 37.7771 27.3785 38.0955 27.059 38.0955Z" fill="black"/>
<path d="M35.9166 25.4375V12.8646C35.9166 11.6146 34.8958 10.6875 33.6562 10.7917H33.5937C31.4062 10.9792 28.0833 12.0938 26.2291 13.2604L26.052 13.375C25.7499 13.5625 25.2499 13.5625 24.9478 13.375L24.6874 13.2188C22.8333 12.0625 19.5208 10.9583 17.3333 10.7813C16.0937 10.6771 15.0833 11.6146 15.0833 12.8542V25.4375C15.0833 26.4375 15.8958 27.375 16.8958 27.5L17.1978 27.5417C19.4583 27.8438 22.9478 28.9896 24.9478 30.0833L24.9895 30.1042C25.2708 30.2604 25.7187 30.2604 25.9895 30.1042C27.9895 29 31.4895 27.8438 33.7603 27.5417L34.1041 27.5C35.1041 27.375 35.9166 26.4375 35.9166 25.4375Z" stroke="black" stroke-width="1.08696" stroke-linecap="round" stroke-linejoin="round"/>
<path d="M25.5 13.7188V29.3437" stroke="black" stroke-width="1.08696" stroke-linecap="round" stroke-linejoin="round"/>
<path d="M21.073 16.8438H18.7292" stroke="black" stroke-width="0.769231" stroke-linecap="round" stroke-linejoin="round"/>
<path d="M21.8542 19.9688H18.7292" stroke="black" stroke-width="0.769231" stroke-linecap="round" stroke-linejoin="round"/>
</svg>
