<svg width="33" height="54" viewBox="0 0 33 54" fill="none" xmlns="http://www.w3.org/2000/svg">
<path d="M25.4744 50.3029H10.5056C8.79291 50.3029 7.40479 48.9148 7.40479 47.2021V6.69361C7.40479 4.9809 8.79291 3.59277 10.5056 3.59277H25.4744C27.1871 3.59277 28.5753 4.9809 28.5753 6.69361V47.2027C28.5753 48.9148 27.1871 50.3029 25.4744 50.3029Z" fill="#C8D4FF"/>
<path d="M23.8597 29.5414C23.6879 29.5414 23.5238 29.4672 23.4106 29.3384L19.5169 24.9135C19.2983 24.665 19.3222 24.2871 19.5708 24.0685C19.8193 23.8493 20.1978 23.8745 20.4157 24.1224L23.8567 28.0317L30.4214 20.4461C30.637 20.1957 31.016 20.1694 31.2658 20.385C31.5161 20.6018 31.543 20.9796 31.3268 21.2299L24.3125 29.3342C24.1993 29.4654 24.0352 29.5408 23.8621 29.5414C23.8615 29.5414 23.8603 29.5414 23.8597 29.5414Z" fill="black"/>
<path d="M14.4477 31.3228H5.33322C5.00266 31.3228 4.73438 31.0551 4.73438 30.7239C4.73438 30.3927 5.00266 30.1251 5.33322 30.1251H14.4477C14.7783 30.1251 15.0465 30.3927 15.0465 30.7239C15.0465 31.0551 14.7789 31.3228 14.4477 31.3228Z" fill="black"/>
<path d="M13.0848 25.7271H0.598848C0.268284 25.7271 0 25.4588 0 25.1283C0 24.7977 0.268284 24.5294 0.598848 24.5294H13.0848C13.4154 24.5294 13.6837 24.7977 13.6837 25.1283C13.6837 25.4588 13.4154 25.7271 13.0848 25.7271Z" fill="black"/>
<path d="M18.9003 49.7044H17.0798C16.7492 49.7044 16.481 49.4367 16.481 49.1055C16.481 48.7744 16.7492 48.5067 17.0798 48.5067H18.8997C19.2309 48.5067 19.4986 48.7744 19.4986 49.1055C19.4986 49.4367 19.2309 49.7044 18.9003 49.7044Z" fill="black"/>
<path d="M14.8519 5.39008H13.9416C13.6111 5.39008 13.3428 5.1218 13.3428 4.79123C13.3428 4.46067 13.6111 4.19238 13.9416 4.19238H14.8519C15.1824 4.19238 15.4507 4.46067 15.4507 4.79123C15.4507 5.1218 15.1824 5.39008 14.8519 5.39008Z" fill="black"/>
<path d="M22.0382 5.39008H17.5349C17.2043 5.39008 16.936 5.1218 16.936 4.79123C16.936 4.46067 17.2043 4.19238 17.5349 4.19238H22.0382C22.3694 4.19238 22.6371 4.46067 22.6371 4.79123C22.6371 5.1218 22.3694 5.39008 22.0382 5.39008Z" fill="black"/>
<path d="M4.07883 20.1315C3.74826 20.1315 3.47998 19.8632 3.47998 19.5326V3.99611C3.47998 1.79295 5.27233 0 7.47549 0H28.504C30.7078 0 32.5002 1.79295 32.5002 3.99611V18.7889C32.5002 19.1194 32.2325 19.3877 31.9013 19.3877C31.5702 19.3877 31.3025 19.1194 31.3025 18.7889V3.99611C31.3025 2.45288 30.0473 1.1977 28.5046 1.1977H7.47549C5.93226 1.1977 4.67708 2.45288 4.67708 3.99611V19.5326C4.67768 19.8632 4.40939 20.1315 4.07883 20.1315Z" fill="black"/>
<path d="M28.5045 53.896H7.47536C5.2722 53.896 3.47925 52.1036 3.47925 49.8999V35.2131C3.47925 34.8819 3.74753 34.6143 4.0781 34.6143C4.40866 34.6143 4.67694 34.8819 4.67694 35.2131V49.8999C4.67694 51.4425 5.93213 52.6983 7.47536 52.6983H28.5039C30.0465 52.6983 31.3023 51.4425 31.3023 49.8999V40.0931C31.3023 39.762 31.57 39.4943 31.9012 39.4943C32.2323 39.4943 32.5 39.762 32.5 40.0931V49.8999C32.5 52.1036 30.7077 53.896 28.5045 53.896Z" fill="black"/>
</svg>
